<svg xmlns="http://www.w3.org/2000/svg" xmlns:xlink="http://www.w3.org/1999/xlink" width="500" zoomAndPan="magnify" viewBox="0 0 375 374.999991" height="500" preserveAspectRatio="xMidYMid meet" version="1.0"><defs><g/><clipPath id="c4a0972294"><path d="M 142.675781 118.816406 L 232.675781 118.816406 L 232.675781 195.316406 L 142.675781 195.316406 Z M 142.675781 118.816406 " clip-rule="nonzero"/></clipPath></defs><g clip-path="url(#c4a0972294)"><path fill="#ffbd59" d="M 159.242188 195.652344 L 170.445312 176.203125 L 178.769531 161.878906 L 187.015625 147.550781 L 178.769531 133.144531 L 170.445312 147.550781 L 162.125 161.878906 L 142.675781 195.652344 Z M 203.582031 176.203125 C 208.78125 176.203125 213.746094 174.84375 217.90625 172.359375 C 222.148438 169.960938 225.667969 166.4375 228.152344 162.355469 L 228.472656 161.878906 L 228.710938 161.398438 C 231.03125 157.234375 232.3125 152.511719 232.3125 147.550781 C 232.3125 142.507812 231.03125 137.789062 228.710938 133.625 L 228.472656 133.144531 L 228.152344 132.746094 C 225.667969 128.582031 222.148438 125.0625 217.90625 122.660156 C 213.746094 120.179688 208.78125 118.820312 203.582031 118.820312 L 170.445312 118.820312 L 178.769531 133.144531 L 203.582031 133.144531 C 206.222656 133.144531 208.621094 133.867188 210.785156 135.066406 C 215.027344 137.546875 217.90625 142.1875 217.90625 147.550781 C 217.90625 152.832031 215.027344 157.476562 210.785156 159.957031 C 208.621094 161.15625 206.222656 161.878906 203.582031 161.878906 L 195.335938 161.878906 L 187.015625 176.203125 L 192.617188 185.96875 L 198.21875 195.652344 L 214.785156 195.652344 L 207.023438 182.207031 Z M 203.582031 176.203125 " fill-opacity="1" fill-rule="evenodd"/></g><g fill="#f6f6e9" fill-opacity="1"><g transform="translate(132.540374, 226.955365)"><g><path d="M 9.578125 0 L 9.0625 -2.5 L 5.046875 -2.5 L 4.484375 0 L 0 0 L 4.3125 -16.765625 L 9.875 -16.765625 L 14.171875 0 Z M 5.75 -5.75 L 8.359375 -5.75 L 7.078125 -11.78125 Z M 5.75 -5.75 "/></g></g></g><g fill="#f6f6e9" fill-opacity="1"><g transform="translate(151.568316, 226.955365)"><g><path d="M 5.484375 0 L 1.046875 0 L 1.046875 -17.46875 L 5.484375 -17.46875 Z M 5.484375 0 "/></g></g></g><g fill="#f6f6e9" fill-opacity="1"><g transform="translate(162.948938, 226.955365)"><g><path d="M 4.625 -13.03125 L 7.8125 -13.03125 C 10.363281 -13.03125 11.640625 -11.953125 11.640625 -9.796875 L 11.640625 -5.359375 L 4.984375 -5.359375 L 4.984375 -3.625 C 4.984375 -3.25 5.203125 -3.0625 5.640625 -3.0625 L 6.78125 -3.0625 C 7.21875 -3.0625 7.4375 -3.269531 7.4375 -3.6875 L 7.4375 -4.40625 L 11.640625 -4.40625 L 11.640625 -3.234375 C 11.640625 -1.078125 10.363281 0 7.8125 0 L 4.625 0 C 2.0625 0 0.78125 -1.078125 0.78125 -3.234375 L 0.78125 -9.796875 C 0.78125 -11.953125 2.0625 -13.03125 4.625 -13.03125 Z M 4.984375 -7.75 L 7.4375 -7.75 L 7.4375 -9.40625 C 7.4375 -9.78125 7.21875 -9.96875 6.78125 -9.96875 L 5.640625 -9.96875 C 5.203125 -9.96875 4.984375 -9.78125 4.984375 -9.40625 Z M 4.984375 -7.75 "/></g></g></g><g fill="#f6f6e9" fill-opacity="1"><g transform="translate(180.097679, 226.955365)"><g><path d="M 8.4375 -6.734375 L 11.671875 0 L 7.1875 0 L 5.765625 -3.859375 L 4.484375 0 L 0.15625 0 L 3.140625 -6.65625 L 0 -13.03125 L 4.640625 -13.03125 L 5.765625 -9.40625 L 6.890625 -13.03125 L 11.3125 -13.03125 Z M 8.4375 -6.734375 "/></g></g></g><g fill="#f6f6e9" fill-opacity="1"><g transform="translate(196.620014, 226.955365)"><g/></g></g><g fill="#f6f6e9" fill-opacity="1"><g transform="translate(206.695642, 226.955365)"><g><path d="M 5.609375 -5.953125 L 5.609375 0 L 1.046875 0 L 1.046875 -16.765625 L 8.796875 -16.765625 C 11.359375 -16.765625 12.640625 -15.6875 12.640625 -13.53125 L 12.640625 -9.1875 C 12.640625 -7.53125 11.890625 -6.515625 10.390625 -6.140625 L 13.46875 0 L 8.5625 0 L 5.90625 -5.953125 Z M 7.421875 -13.5 L 5.609375 -13.5 L 5.609375 -9.0625 L 7.421875 -9.0625 C 7.847656 -9.0625 8.0625 -9.253906 8.0625 -9.640625 L 8.0625 -12.921875 C 8.0625 -13.304688 7.847656 -13.5 7.421875 -13.5 Z M 7.421875 -13.5 "/></g></g></g><g fill="#f6f6e9" fill-opacity="1"><g transform="translate(224.96669, 226.955365)"><g><path d="M 5.125 0 L 1.046875 0 L 1.046875 -16.765625 L 6.03125 -16.765625 L 8.75 -7.8125 L 11.46875 -16.765625 L 16.453125 -16.765625 L 16.453125 0 L 12.40625 0 L 12.40625 -10.65625 L 10.3125 -3.625 L 7.1875 -3.625 L 5.125 -10.59375 Z M 5.125 0 "/></g></g></g><g fill="#ffbd59" fill-opacity="1"><g transform="translate(154.649927, 250.857115)"><g><path d="M 2.953125 -1.71875 L 5.953125 -1.71875 L 5.953125 0 L 0.546875 0 L 0.546875 -8.796875 L 5.828125 -8.796875 L 5.828125 -7.078125 L 2.953125 -7.078125 L 2.953125 -5.296875 L 5.421875 -5.296875 L 5.421875 -3.578125 L 2.953125 -3.578125 Z M 2.953125 -1.71875 "/></g></g></g><g fill="#ffbd59" fill-opacity="1"><g transform="translate(162.977562, 250.857115)"><g><path d="M 4.5625 -8.796875 L 6.75 -8.796875 L 6.75 0 L 4.703125 0 L 2.734375 -4.625 L 2.734375 0 L 0.546875 0 L 0.546875 -8.796875 L 2.609375 -8.796875 L 4.5625 -4.09375 Z M 4.5625 -8.796875 "/></g></g></g><g fill="#ffbd59" fill-opacity="1"><g transform="translate(172.455497, 250.857115)"><g><path d="M 6.453125 -5.78125 L 4.0625 -5.78125 L 4.0625 -6.921875 C 4.0625 -7.117188 3.945312 -7.21875 3.71875 -7.21875 L 3.21875 -7.21875 C 2.988281 -7.21875 2.875 -7.117188 2.875 -6.921875 L 2.875 -1.875 C 2.875 -1.675781 2.988281 -1.578125 3.21875 -1.578125 L 3.71875 -1.578125 C 3.945312 -1.578125 4.0625 -1.675781 4.0625 -1.875 L 4.0625 -3.34375 L 3.375 -3.34375 L 3.375 -4.859375 L 6.453125 -4.859375 L 6.453125 -1.703125 C 6.453125 -0.566406 5.78125 0 4.4375 0 L 2.5 0 C 1.15625 0 0.484375 -0.566406 0.484375 -1.703125 L 0.484375 -7.09375 C 0.484375 -8.226562 1.15625 -8.796875 2.5 -8.796875 L 4.4375 -8.796875 C 5.78125 -8.796875 6.453125 -8.226562 6.453125 -7.09375 Z M 6.453125 -5.78125 "/></g></g></g><g fill="#ffbd59" fill-opacity="1"><g transform="translate(181.495226, 250.857115)"><g><path d="M 0.546875 -8.796875 L 2.953125 -8.796875 L 2.953125 0 L 0.546875 0 Z M 0.546875 -8.796875 "/></g></g></g><g fill="#ffbd59" fill-opacity="1"><g transform="translate(187.166202, 250.857115)"><g><path d="M 4.5625 -8.796875 L 6.75 -8.796875 L 6.75 0 L 4.703125 0 L 2.734375 -4.625 L 2.734375 0 L 0.546875 0 L 0.546875 -8.796875 L 2.609375 -8.796875 L 4.5625 -4.09375 Z M 4.5625 -8.796875 "/></g></g></g><g fill="#ffbd59" fill-opacity="1"><g transform="translate(196.644136, 250.857115)"><g><path d="M 2.953125 -1.71875 L 5.953125 -1.71875 L 5.953125 0 L 0.546875 0 L 0.546875 -8.796875 L 5.828125 -8.796875 L 5.828125 -7.078125 L 2.953125 -7.078125 L 2.953125 -5.296875 L 5.421875 -5.296875 L 5.421875 -3.578125 L 2.953125 -3.578125 Z M 2.953125 -1.71875 "/></g></g></g><g fill="#ffbd59" fill-opacity="1"><g transform="translate(204.97177, 250.857115)"><g><path d="M 2.953125 -1.71875 L 5.953125 -1.71875 L 5.953125 0 L 0.546875 0 L 0.546875 -8.796875 L 5.828125 -8.796875 L 5.828125 -7.078125 L 2.953125 -7.078125 L 2.953125 -5.296875 L 5.421875 -5.296875 L 5.421875 -3.578125 L 2.953125 -3.578125 Z M 2.953125 -1.71875 "/></g></g></g><g fill="#ffbd59" fill-opacity="1"><g transform="translate(213.299404, 250.857115)"><g><path d="M 2.953125 -3.125 L 2.953125 0 L 0.546875 0 L 0.546875 -8.796875 L 4.625 -8.796875 C 5.957031 -8.796875 6.625 -8.226562 6.625 -7.09375 L 6.625 -4.828125 C 6.625 -3.953125 6.234375 -3.414062 5.453125 -3.21875 L 7.078125 0 L 4.5 0 L 3.09375 -3.125 Z M 3.890625 -7.078125 L 2.953125 -7.078125 L 2.953125 -4.75 L 3.890625 -4.75 C 4.117188 -4.75 4.234375 -4.851562 4.234375 -5.0625 L 4.234375 -6.78125 C 4.234375 -6.976562 4.117188 -7.078125 3.890625 -7.078125 Z M 3.890625 -7.078125 "/></g></g></g></svg>